# xmcd CD database file
#
# Track frame offsets:
#	150
#	15529
#	30475
#	59980
#	74657
#	94461
#	103648
#	115372
#	133476
#	148752
#	162394
#	179736
#	199038
#	221443
#	243642
#	262717
#	279262
#	298417
#	312566
#	325233
#
# Disc length: 4648 seconds
#
# Revision: 2
# Processed by: cddbd v1.4PL0 Copyright (c) Steve Scherf et al.
# Submitted via: CDex 1.50beta10
#
DISCID=4d122614
DTITLE=Thomas Quasthoff_Daniel Wahren - Sommer
DYEAR=2002
DGENRE=Jazz
TTITLE0=Daniel Wahren solo
TTITLE1=It dont mean a thing
TTITLE2=Autumn leaves
TTITLE3=Saitin doll
TTITLE4=Stella aus Starlight
TTITLE5=The Lady is a tramp
TTITLE6=People
TTITLE7=Solo Thomas Quasthoff
TTITLE8=Night in Thunesia
TTITLE9=On the sunny side
TTITLE10=I get the kick
TTITLE11=Med bossa nova
TTITLE12=Moon river
TTITLE13=My funny Valentine
TTITLE14=A Quater to Three
TTITLE15=Basin street blues
TTITLE16=Summertime
TTITLE17=mack the knife
TTITLE18=Love me tender
TTITLE19=My way
EXTD=YEAR: 2002
EXTT0=
EXTT1=
EXTT2=
EXTT3=
EXTT4=
EXTT5=
EXTT6=
EXTT7=
EXTT8=
EXTT9=
EXTT10=
EXTT11=
EXTT12=
EXTT13=
EXTT14=
EXTT15=
EXTT16=
EXTT17=
EXTT18=
EXTT19=
PLAYORDER=
